<?xml version="1.0" standalone="no"?><!DOCTYPE svg PUBLIC "-//W3C//DTD SVG 1.1//EN" "http://www.w3.org/Graphics/SVG/1.1/DTD/svg11.dtd"><svg class="icon" width="24px" height="24.00px" viewBox="0 0 1024 1024" version="1.1" xmlns="http://www.w3.org/2000/svg"><path fill="#eee" d="M839.68 849.92H158.72c-37.546667 0-69.973333-30.72-69.973333-69.973333V244.053333c0-37.546667 30.72-69.973333 69.973333-69.973333h680.96c37.546667 0 69.973333 30.72 69.973333 69.973333v535.893334c0 37.546667-30.72 69.973333-69.973333 69.973333zM158.72 225.28c-10.24 0-18.773333 8.533333-18.773333 18.773333v535.893334c0 10.24 8.533333 18.773333 18.773333 18.773333h680.96c10.24 0 18.773333-8.533333 18.773333-18.773333V244.053333c0-10.24-8.533333-18.773333-18.773333-18.773333H158.72z"  /><path fill="#ffffff" d="M964.266667 848.213333h-904.533334c-13.653333 0-25.6-11.946667-25.6-25.6s11.946667-25.6 25.6-25.6h904.533334c13.653333 0 25.6 11.946667 25.6 25.6s-11.946667 25.6-25.6 25.6z"  /><path fill="#ffffff" d="M134.826667 223.573333v576.853334h730.453333V223.573333H134.826667z m628.053333 230.4l-150.186667 138.24c-13.653333 11.946667-34.133333 11.946667-46.08 0l-110.933333-104.106666-146.773333 139.946666c-6.826667 6.826667-15.36 10.24-23.893334 10.24-8.533333 0-18.773333-3.413333-23.893333-10.24-13.653333-13.653333-11.946667-35.84 1.706667-47.786666l168.96-162.133334c13.653333-11.946667 34.133333-11.946667 46.08 0l110.933333 104.106667 126.293333-117.76c13.653333-13.653333 35.84-11.946667 47.786667 1.706667 15.36 13.653333 13.653333 35.84 0 47.786666z"  /></svg>