<?xml version="1.0" standalone="no"?><!DOCTYPE svg PUBLIC "-//W3C//DTD SVG 1.1//EN" "http://www.w3.org/Graphics/SVG/1.1/DTD/svg11.dtd"><svg class="icon" width="40px" height="40.00px" viewBox="0 0 1024 1024" version="1.1" xmlns="http://www.w3.org/2000/svg"><path fill="red" d="M511.3 65.6c-247.4 0-448 199.7-448 446.1 0 246.4 200.6 446.1 448 446.1s448-199.7 448-446.1c0-246.3-200.5-446.1-448-446.1z m0 830.2c-213 0-385.7-171.9-385.7-384s172.7-384 385.7-384S897 299.7 897 511.8c0 212-172.7 384-385.7 384z"  /><path fill="red" d="M210.1 770.2c-7.8 7.8-7.8 20.5 0 28.2l14 14c7.8 7.8 20.5 7.8 28.3 0l554.8-553.3c7.8-7.8 7.8-20.5 0-28.2l-14-14c-7.8-7.8-20.5-7.8-28.3 0L210.1 770.2z"  /></svg>