<?xml version="1.0" standalone="no"?><!DOCTYPE svg PUBLIC "-//W3C//DTD SVG 1.1//EN" "http://www.w3.org/Graphics/SVG/1.1/DTD/svg11.dtd"><svg class="icon" width="200px" height="200.00px" viewBox="0 0 1024 1024" version="1.1" xmlns="http://www.w3.org/2000/svg"><path fill="#333333" d="M494.762667 457.784889A56.888889 56.888889 0 0 1 566.613333 527.928889l191.829334 187.335111a28.444444 28.444444 0 1 1-39.765334 40.732444L525.482667 567.296a57.002667 57.002667 0 0 1-69.063111-67.470222L279.267556 326.826667a28.444444 28.444444 0 0 1 39.765333-40.732445l175.786667 171.690667z m-171.235556-47.957333l77.767111 75.889777a113.777778 113.777778 0 0 0 139.605334 136.362667l50.346666 49.208889c-25.770667 7.566222-52.167111 11.377778-79.246222 11.377778-104.675556 0-199.509333-58.709333-284.330667-176.128 30.947556-39.253333 62.919111-71.452444 95.857778-96.711111z m105.528889-55.978667C456.078222 345.486222 483.726222 341.333333 512 341.333333c104.675556 0 199.566222 56.888889 284.444444 170.666667-31.687111 42.496-64.853333 77.027556-99.271111 103.651556L621.795556 542.037333a113.891556 113.891556 0 0 0-142.449778-139.093333l-50.289778-49.095111z"  /></svg>