<?xml version="1.0" standalone="no"?><!DOCTYPE svg PUBLIC "-//W3C//DTD SVG 1.1//EN" "http://www.w3.org/Graphics/SVG/1.1/DTD/svg11.dtd"><svg class="icon" width="16px" height="16.00px" viewBox="0 0 1024 1024" version="1.1" xmlns="http://www.w3.org/2000/svg"><path fill="#FFFFFF" d="M921.6 203.093333H520.533333L409.6 69.973333c-6.826667-8.533333-15.36-11.946667-25.6-11.946666H102.4c-37.546667 0-68.266667 30.72-68.266667 68.266666v771.413334c0 37.546667 30.72 68.266667 68.266667 68.266666h819.2c37.546667 0 68.266667-30.72 68.266667-68.266666V271.36c0-37.546667-30.72-68.266667-68.266667-68.266667zM680.96 633.173333l-145.066667 145.066667c-3.413333 3.413333-6.826667 6.826667-11.946666 8.533333l-3.413334 1.706667c-1.706667 0-3.413333 1.706667-5.12 1.706667h-6.826666c-8.533333 0-15.36-3.413333-20.48-10.24l-145.066667-145.066667c-6.826667-6.826667-10.24-15.36-10.24-23.893333 0-8.533333 3.413333-17.066667 10.24-23.893334 13.653333-13.653333 35.84-13.653333 47.786667 0l87.04 87.04V414.72c0-18.773333 15.36-34.133333 34.133333-34.133333s34.133333 15.36 34.133333 34.133333v257.706667l87.04-87.04c13.653333-13.653333 35.84-13.653333 47.786667 0 6.826667 6.826667 10.24 15.36 10.24 23.893333 0 8.533333-3.413333 17.066667-10.24 23.893333z"  /></svg>