<?xml version="1.0" standalone="no"?><!DOCTYPE svg PUBLIC "-//W3C//DTD SVG 1.1//EN" "http://www.w3.org/Graphics/SVG/1.1/DTD/svg11.dtd"><svg class="icon" width="16px" height="16.00px" viewBox="0 0 1024 1024" version="1.1" xmlns="http://www.w3.org/2000/svg"><path fill="#333333" d="M184 256c-39.765 0-72-32.235-72-72s32.235-72 72-72 72 32.235 72 72-32.235 72-72 72z m160-108h560a8 8 0 0 1 8 8v56a8 8 0 0 1-8 8H344a8 8 0 0 1-8-8v-56a8 8 0 0 1 8-8z m0 328h560a8 8 0 0 1 8 8v56a8 8 0 0 1-8 8H344a8 8 0 0 1-8-8v-56a8 8 0 0 1 8-8z m0 328h560a8 8 0 0 1 8 8v56a8 8 0 0 1-8 8H344a8 8 0 0 1-8-8v-56a8 8 0 0 1 8-8zM184 584c-39.765 0-72-32.235-72-72s32.235-72 72-72 72 32.235 72 72-32.235 72-72 72z m0 328c-39.765 0-72-32.235-72-72s32.235-72 72-72 72 32.235 72 72-32.235 72-72 72z"  /></svg>