<?xml version="1.0" standalone="no"?><!DOCTYPE svg PUBLIC "-//W3C//DTD SVG 1.1//EN" "http://www.w3.org/Graphics/SVG/1.1/DTD/svg11.dtd"><svg class="icon" width="16px" height="15.97px" viewBox="0 0 1026 1024" version="1.1" xmlns="http://www.w3.org/2000/svg"><path fill="#FFFFFF" d="M932.351965 0.000582a93.821479 93.821479 0 0 1 49.152904 173.782305l-327.588963 201.620087v558.095115a90.560149 90.560149 0 0 1-140.761337 75.360021l-78.155447-52.123044a140.761337 140.761337 0 0 1-62.664128-117.116693V375.344736L44.80427 173.782887A93.821479 93.821479 0 0 1 93.957173 0.000582h838.627744zM759.210279 469.224452h211.171124a31.099112 31.099112 0 0 1 34.942823 34.942823 31.099112 31.099112 0 0 1-34.942823 34.942823h-211.171124a31.099112 31.099112 0 0 1-34.942823-34.942823 31.099112 31.099112 0 0 1 35.175775-34.942823zM759.210279 633.455719h211.171124a31.099112 31.099112 0 0 1 34.942823 34.942823 31.099112 31.099112 0 0 1-34.942823 34.942822h-211.171124a31.099112 31.099112 0 0 1-34.942823-34.942822 31.099112 31.099112 0 0 1 35.175775-34.942823zM759.210279 797.628747h211.171124a31.099112 31.099112 0 0 1 34.942823 34.942823 31.099112 31.099112 0 0 1-34.942823 34.942823h-211.171124a31.099112 31.099112 0 0 1-34.942823-34.942823 31.099112 31.099112 0 0 1 35.175775-34.942823z" /></svg>